<?xml version="1.0" standalone="no"?>
<!DOCTYPE svg PUBLIC "-//W3C//DTD SVG 20010904//EN"
 "http://www.w3.org/TR/2001/REC-SVG-20010904/DTD/svg10.dtd">
<svg version="1.0" xmlns="http://www.w3.org/2000/svg"
 width="400.000000pt" height="400.000000pt" viewBox="0 0 400.000000 400.000000"
 preserveAspectRatio="xMidYMid meet">
<metadata>
Created by potrace 1.14, written by Peter Selinger 2001-2017
</metadata>
<g transform="translate(0.000000,400.000000) scale(0.100000,-0.100000)"
fill="#000000" stroke="none">
<path d="M1819 3967 c-2 -3 -33 -7 -69 -11 -251 -24 -554 -131 -789 -279 -78
-49 -62 -37 -187 -136 -222 -175 -412 -415 -535 -676 -41 -88 -94 -221 -104
-265 -2 -8 -12 -49 -24 -90 -39 -146 -55 -277 -56 -455 0 -152 10 -308 20
-325 2 -4 7 -28 10 -53 7 -53 53 -221 85 -312 43 -120 203 -425 240 -455 4 -3
26 -32 50 -65 53 -74 254 -275 335 -337 91 -69 220 -151 315 -199 47 -24 87
-44 90 -44 3 -1 23 -9 45 -19 63 -28 233 -82 315 -100 152 -33 254 -43 423
-44 233 0 407 26 612 93 99 33 245 94 266 112 8 7 20 13 25 13 17 0 176 101
274 174 360 268 638 708 724 1146 8 41 18 91 22 110 14 70 13 481 -1 565 -36
208 -73 338 -142 495 -25 57 -94 193 -112 220 -9 14 -20 32 -26 41 -20 33 -90
134 -100 145 -5 6 -30 36 -54 65 -116 139 -314 310 -473 407 -226 138 -432
212 -748 268 -41 7 -424 17 -431 11z"/>
</g>
</svg>
